HIERARCHY
ROOT hip
{
	OFFSET 0.000000 0.000000 0.000000 
	CHANNELS 6 Xposition Yposition Zposition Xrotation Zrotation Yrotation
	JOINT abdomen
	{
		OFFSET 0.000000 3.402643 0.000000 
		CHANNELS 3 Xrotation Zrotation Yrotation
		JOINT chest
		{
			OFFSET 0.000000 8.438565 -0.680529 
			CHANNELS 3 Xrotation Zrotation Yrotation
			JOINT neck
			{
				OFFSET 0.000000 10.207942 -0.272212 
				CHANNELS 3 Xrotation Zrotation Yrotation
				JOINT head
				{
					OFFSET 0.000000 3.130431 0.000000 
					CHANNELS 3 Xrotation Zrotation Yrotation
					End Site
					{
						OFFSET 0.000000 3.130435 0.000000 
					}
				}
			}
			JOINT lCollar
			{
				OFFSET 3.470700 6.669187 -0.816635 
				CHANNELS 3 Yrotation Zrotation Xrotation
				JOINT lShldr
				{
					OFFSET 3.198488 0.000000 0.000000 
					CHANNELS 3 Zrotation Yrotation Xrotation
					JOINT lForeArm
					{
						OFFSET 10.139888 0.000000 0.000000 
						CHANNELS 3 Yrotation Zrotation Xrotation
						JOINT lHand
						{
							OFFSET 8.370511 0.000000 0.000000 
							CHANNELS 3 Zrotation Yrotation Xrotation
							End Site
							{
								OFFSET 4.083176 0.000000 0.000000 
							}
						}
					}
				}
			}
			JOINT rCollar
			{
				OFFSET -3.470700 6.669187 -0.816635 
				CHANNELS 3 Yrotation Zrotation Xrotation
				JOINT rShldr
				{
					OFFSET -3.198488 0.000000 0.000000 
					CHANNELS 3 Zrotation Yrotation Xrotation
					JOINT rForeArm
					{
						OFFSET -10.139888 0.000000 0.000000 
						CHANNELS 3 Yrotation Zrotation Xrotation
						JOINT rHand
						{
							OFFSET -8.370511 0.000000 0.000000 
							CHANNELS 3 Zrotation Yrotation Xrotation
							End Site
							{
								OFFSET -4.083176 0.000000 0.000000 
							}
						}
					}
				}
			}
		}
	}
	JOINT lThigh
	{
		OFFSET 5.308129 -1.633274 1.361059 
		CHANNELS 3 Xrotation Zrotation Yrotation
		JOINT lShin
		{
			OFFSET -2.041588 -20.007561 0.000000 
			CHANNELS 3 Xrotation Zrotation Yrotation
			JOINT lFoot
			{
				OFFSET 0.000000 -19.190928 -1.224953 
				CHANNELS 3 Xrotation Yrotation Zrotation
				End Site
				{
					OFFSET 0.000000 -2.449906 4.627600 
				}
			}
		}
	}
	JOINT rThigh
	{
		OFFSET -5.308129 -1.633274 1.361059 
		CHANNELS 3 Xrotation Zrotation Yrotation
		JOINT rShin
		{
			OFFSET 2.041588 -20.007561 0.000000 
			CHANNELS 3 Xrotation Zrotation Yrotation
			JOINT rFoot
			{
				OFFSET 0.000000 -19.190928 -1.224953 
				CHANNELS 3 Xrotation Yrotation Zrotation
				End Site
				{
					OFFSET 0.000000 -2.449906 4.627600 
				}
			}
		}
	}
}
MOTION
Frames: 19
Frame Time: 0.033333
-1.383464 52.114731 -1.076623 1.846968 2.478088 2.512484 0.000000 0.000000 0.000000 -2.511863 -0.292961 0.410151 6.571760 0.156249 -0.185546 8.350146 0.820261 -0.644465 -0.232417 10.020839 -1.697086 -12.377342 -0.112718 -22.482595 0.301414 -5.386237 28.187696 3.269199 -5.182910 -3.616656 0.639746 -8.939103 -1.729042 8.887897 -9.578076 -17.912739 -0.211107 4.936127 15.955364 -3.619762 8.224887 -3.711655 1.366817 4.315556 5.203889 2.019975 -2.723812 9.735743 -3.700683 0.128452 -3.541549 3.931496 -15.186520 -12.585887 0.751525 1.989460 -14.741880 -0.552760 -0.080329 12.007360 
-0.936959 52.081520 -1.072304 1.487226 1.833694 2.833705 0.000000 0.000000 0.000000 -2.431391 0.146484 0.097681 6.403119 0.322250 -0.556632 9.196136 0.908112 -0.810600 -0.553408 9.989686 -1.597442 -12.145026 -0.182117 -22.799839 0.326694 -5.368417 28.089882 3.323588 -5.111082 -3.618355 0.289897 -8.625051 -1.648986 8.937768 -9.310905 -17.762114 -0.198445 4.964866 16.181568 -3.575004 8.492639 -3.700869 2.067213 5.130287 6.265248 1.598777 -3.597477 8.250033 -3.696225 0.136960 -3.897428 4.362722 -14.858221 -12.410884 0.732052 1.725458 -14.965916 -0.395899 -0.067744 12.590864 
-0.480243 52.071980 -1.097911 1.484757 1.249031 2.256601 0.000000 0.000000 0.000000 -2.575831 0.517573 0.253984 6.394194 0.312492 -0.419916 9.065727 1.415776 -1.054848 -0.210303 9.825225 -1.745165 -11.719148 -0.403969 -22.808672 0.331890 -5.381056 28.187941 3.321364 -5.061853 -3.625497 0.529111 -8.438333 -1.785585 9.161637 -9.307078 -18.314825 -0.206947 4.739584 17.185453 -2.964144 8.794375 -3.640293 2.293881 5.653204 7.113189 1.677277 -4.392836 7.747392 -4.102408 0.139335 -3.689507 3.991028 -14.759074 -12.038615 0.897977 1.518865 -13.988740 -0.019343 -0.021688 13.155959 
0.009488 52.090977 -1.135921 1.939581 0.888532 1.015806 0.000000 0.000000 0.000000 -3.104026 0.722569 0.888848 6.201718 0.400390 0.078191 9.317537 1.737868 -1.250313 0.411676 10.069818 -2.243021 -11.561912 -0.560360 -22.532335 0.311987 -5.420471 28.336117 3.356167 -4.991256 -3.624446 1.026203 -8.377005 -2.278255 9.475064 -9.608255 -17.820484 -0.221280 4.786726 17.666262 -2.758060 8.620749 -3.620986 1.913341 5.615505 7.432274 1.961242 -4.928559 8.573270 -4.579878 0.133047 -2.838589 2.877598 -15.187986 -11.759567 1.336893 1.579252 -11.386974 0.832138 0.073762 13.632687 
0.437137 52.102165 -1.178220 2.109675 0.878906 0.019679 0.000000 0.000000 0.000000 -3.317901 0.605346 1.152486 6.203151 0.283196 0.400434 9.215945 1.933141 -1.240846 0.953307 9.958936 -2.459489 -10.958343 -0.442291 -21.791552 0.288723 -5.547599 28.419638 3.634212 -5.052370 -3.643871 1.472787 -8.273412 -2.465582 9.412849 -9.772300 -17.266731 -0.246257 4.894456 17.796820 -2.408573 8.368001 -3.578497 1.942301 5.263160 7.480865 1.911359 -5.290795 8.781546 -4.879022 0.085081 -2.171628 2.166163 -15.845897 -11.710198 1.849687 1.669928 -7.804288 1.387224 0.155293 13.948335 
0.742823 52.083286 -1.224888 1.790361 0.888648 -0.419871 0.000000 0.000000 0.000000 -2.949663 0.488192 1.093794 6.141355 -0.146479 0.478514 9.015823 2.138163 -1.250587 1.239690 9.599310 -2.158989 -10.288047 -0.506582 -21.861189 0.274331 -5.561830 28.087368 3.771758 -5.220038 -3.656803 1.605163 -8.443085 -2.110667 9.412889 -9.789565 -17.566338 -0.268998 4.866890 17.805798 -1.861914 8.254042 -3.524248 1.803813 4.994653 7.481379 2.808128 -5.402661 9.084152 -5.440154 0.084657 -1.803254 2.205314 -16.237164 -11.699234 2.176343 1.813678 -3.792303 1.620628 0.180299 13.894581 
0.906485 52.080902 -1.216528 1.004162 0.332027 -0.292964 0.000000 0.000000 0.000000 -2.343502 0.624920 0.918127 6.553113 0.117187 0.185566 8.428704 1.718328 -1.269839 0.842742 10.019847 -1.587824 -10.043565 -0.415413 -22.079504 0.262461 -5.443879 28.267633 4.012645 -5.146070 -3.674323 1.527835 -8.198124 -1.547550 9.398983 -10.104051 -17.279818 -0.256998 4.877000 17.629826 -1.891287 7.909670 -3.529769 1.855010 5.488079 7.964463 4.381466 -5.506274 8.361020 -6.271161 0.087758 -1.635669 3.053391 -15.841332 -11.568627 2.293152 2.242381 0.482142 1.546221 0.212210 13.577552 
0.998426 52.075603 -1.128937 0.067276 -0.205075 0.302732 0.000000 0.000000 0.000000 -1.713883 0.839830 0.332139 6.932484 0.224607 -0.283201 7.887764 1.113056 -1.152506 0.351914 10.122412 -1.003575 -9.723492 -0.407354 -22.290438 0.268538 -5.426387 28.198832 4.200164 -5.007125 -3.683204 1.123442 -8.037684 -0.974843 9.222515 -10.072295 -17.374653 -0.261018 4.862434 17.491995 -1.780153 7.847755 -3.523092 2.186573 5.937156 8.243427 5.747048 -5.328659 7.477718 -6.995455 0.103064 -1.674995 4.401515 -15.112174 -11.420570 2.330433 2.426538 2.730173 1.011041 0.119221 13.173569 
1.029679 52.062649 -1.021487 0.007545 -0.224598 0.566402 0.000000 0.000000 0.000000 -1.901509 0.654291 0.244236 6.920715 0.332017 -0.537100 7.853959 0.400323 -1.054662 0.235484 10.612671 -1.173995 -10.148763 -0.806685 -22.577749 0.272967 -5.382028 28.490496 4.205552 -4.938437 -3.678557 0.820888 -8.318647 -1.143360 9.460790 -10.413944 -17.477278 -0.248593 4.796819 17.588488 -1.558046 7.929718 -3.493685 2.155287 5.853779 8.069317 6.059440 -5.094960 7.303713 -7.257388 0.140296 -1.809177 4.822674 -14.695985 -11.084331 2.367544 2.366805 3.815989 -0.035521 0.021724 12.787106 
0.964813 52.045906 -0.895805 0.283241 0.009766 0.224611 0.000000 0.000000 0.000000 -2.469655 0.341795 0.175836 6.787559 -0.058592 -0.439463 8.037109 0.000000 -0.791016 0.996826 9.945207 -1.756325 -9.681800 -1.384400 -22.110332 0.256881 -5.596646 28.391926 4.039492 -5.105292 -3.674414 0.935618 -8.594585 -1.648754 9.145187 -10.463461 -17.291393 -0.266833 4.862119 17.560936 -1.314849 7.807259 -3.467638 2.232976 5.676833 7.963978 5.776536 -5.094862 7.707655 -7.300154 0.128359 -1.953956 4.647205 -14.295244 -10.542160 2.388071 2.172891 4.763871 -1.086128 -0.115007 12.245074 
0.838062 52.034355 -0.752065 0.291038 0.390620 -0.283197 0.000000 0.000000 0.000000 -2.813459 -0.117184 0.468749 6.602669 -0.341795 -0.185602 8.611680 0.126943 -0.722654 1.088928 9.625587 -2.070806 -9.543078 -1.421950 -21.921204 0.230675 -5.544717 28.859020 3.793131 -5.414620 -3.660694 1.101355 -8.939013 -1.966334 9.227532 -10.745448 -17.220701 -0.261266 4.834011 17.599033 -1.522062 7.804547 -3.495653 2.956877 5.387978 7.953612 4.850356 -5.135706 8.203444 -7.040118 0.161574 -2.140738 4.666120 -13.932547 -10.572139 2.365416 2.189655 3.249428 -2.101762 -0.192734 11.666222 
0.677073 52.051105 -0.594895 0.097644 0.869086 -0.644605 0.000000 0.000000 0.000000 -2.983825 -0.566381 0.537083 6.455511 -0.507812 -0.048913 8.838508 -0.068357 -0.517589 -0.016506 9.069244 -2.127224 -9.202191 0.036888 -21.398626 0.189404 -5.437084 28.697231 3.953390 -5.796274 -3.680607 1.242765 -9.376966 -2.086490 9.407002 -10.770890 -17.368481 -0.262228 4.805559 17.715811 -1.437553 7.897860 -3.476854 4.369092 4.994597 7.893434 2.808455 -5.120877 8.686976 -6.195312 0.131887 -2.308891 4.871277 -13.688210 -11.180455 2.190336 2.256397 -2.052334 -2.972728 -0.332526 11.336271 
0.481236 52.082268 -0.418143 -0.090966 1.367001 -0.947462 0.000000 0.000000 0.000000 -3.144983 -0.908146 0.644605 6.356307 -0.654296 0.097650 8.752471 -0.517572 -0.273515 0.301411 8.784068 -2.292730 -9.310798 -0.273583 -21.350498 0.182319 -5.450511 28.893219 4.317995 -5.822309 -3.711695 1.239741 -9.586162 -2.237334 9.237092 -10.738596 -17.356094 -0.258123 4.805780 17.667154 -1.448397 7.730743 -3.485032 5.788518 4.647012 7.867532 0.798921 -5.158695 8.992476 -5.357826 0.120411 -2.467818 5.194334 -13.690715 -11.634723 1.938518 2.314716 -5.396563 -3.564595 -0.374969 11.064967 
0.256298 52.072620 -0.240543 -0.163592 1.766969 -1.504396 0.000000 0.000000 0.000000 -3.377892 -1.054525 1.005869 6.068476 -0.732399 0.449182 8.634782 -0.888670 -0.127089 0.689486 8.884853 -2.501292 -9.833105 -0.587895 -21.429073 0.196539 -5.476161 28.895081 4.457937 -5.705888 -3.717866 1.484682 -9.455692 -2.442477 8.743518 -10.969379 -17.720581 -0.266448 4.566515 18.582087 -1.138155 7.964460 -3.455111 6.072428 4.384256 7.640516 0.818364 -4.895837 9.769294 -5.529730 0.137710 -3.004097 5.418059 -13.864581 -11.529343 1.773742 2.092370 -5.122999 -3.585929 -0.364758 11.090975 
-0.027320 52.101448 -0.065873 -0.377308 1.629931 -1.934200 0.000000 0.000000 0.000000 -3.411560 -0.712770 1.054727 5.742066 -0.644455 0.878960 8.637508 -1.416007 0.205015 1.022770 8.918703 -2.560527 -10.558254 -0.655008 -21.564787 0.204992 -5.558906 28.408232 4.425082 -5.638990 -3.719779 1.615892 -9.179468 -2.490515 8.358844 -10.653508 -18.394867 -0.263815 4.420006 18.911619 -1.543168 8.008874 -3.493793 6.501664 4.559911 7.590596 0.857926 -4.385029 10.747955 -5.594939 0.185434 -3.728730 5.701379 -13.522392 -11.533613 1.648705 2.201858 -5.247596 -3.602473 -0.352823 10.811440 
-0.409523 52.140301 0.121608 -0.565626 1.220103 -1.797091 0.000000 0.000000 0.000000 -3.547984 -0.195288 0.898432 5.694970 -0.488213 0.956997 8.387110 -1.845668 0.351695 0.777333 8.919011 -2.679454 -10.982087 -0.440406 -21.030321 0.231079 -5.750118 28.524935 3.914208 -5.798780 -3.676661 1.297929 -9.170466 -2.649759 8.128086 -10.381847 -17.235655 -0.238628 4.833131 17.697090 -1.875853 7.979082 -3.530092 6.831800 5.310236 7.934249 1.013377 -4.164446 10.002740 -5.733571 0.207663 -4.284678 6.158604 -12.612664 -11.196523 1.520884 2.239573 -6.104625 -3.779526 -0.369576 10.387648 
-0.807436 52.147091 0.265124 -0.323521 1.298469 -1.347974 0.000000 0.000000 0.000000 -4.006463 -0.312490 0.468743 5.676172 -0.478458 0.888641 7.482791 -1.484275 0.664093 0.392459 9.103462 -3.096921 -11.264879 0.102530 -20.160795 0.256919 -5.923612 29.356443 3.347394 -5.823942 -3.638146 1.020534 -8.952949 -3.053036 7.904253 -10.114606 -17.887836 -0.263665 4.558256 19.090509 -1.655491 8.090303 -3.500880 6.667539 5.623459 7.908028 1.062314 -3.951431 9.578267 -5.729123 0.240372 -4.834527 6.255971 -12.211562 -11.160288 1.472842 2.357649 -6.859704 -4.072559 -0.385738 9.977643 
-1.195942 52.146957 0.413177 -0.196288 1.240065 -0.947466 0.000000 0.000000 0.000000 -4.287901 -0.166014 0.273436 5.394495 -0.449180 0.751930 7.610829 -1.454989 0.634809 0.109230 8.944218 -3.342609 -11.150620 0.276762 -20.024878 0.306566 -5.978076 29.849871 3.216655 -5.283941 -3.617184 0.472062 -9.398207 -3.334263 8.058835 -9.855187 -16.814274 -0.230210 4.866186 18.549995 -1.940954 7.936222 -3.527565 6.611089 6.005999 7.887912 1.092835 -3.669476 9.281815 -5.679402 0.276266 -5.456686 6.501946 -11.901488 -11.328817 1.454717 2.730514 -6.979146 -4.468581 -0.389420 9.479548 
-1.616906 52.141048 0.544108 -0.237942 0.878805 -0.869188 0.000000 0.000000 0.000000 -4.354906 0.126952 0.253927 5.161914 -0.273407 0.859365 7.436003 -1.308506 0.664112 0.062516 9.015784 -3.392362 -10.924161 0.327850 -20.077709 0.341116 -6.085552 29.502424 3.535270 -4.705827 -3.634810 0.328533 -9.293324 -3.413036 7.888896 -9.766824 -16.734451 -0.211682 4.904652 18.188318 -2.558869 7.732142 -3.597955 6.774282 6.736361 8.255816 1.139846 -3.441493 9.023422 -5.692426 0.330811 -6.050346 6.774930 -11.228629 -11.241846 1.414424 3.050208 -7.275544 -4.755065 -0.402131 8.930954 
